# xmcd
#
# Track frame offsets:
#	150
#	11280
#	25267
#	59399
#	81344
#	116641
#	163756
#	181774
#	193012
#	222917
#	236948
#	254712
#	278392
#
# Disc length: 4094 seconds
#
# Revision: 0
# Processed by: cddbd v1.5.2PL0 Copyright (c) Steve Scherf et al.
# Submitted via: EasyCDDAExtractor 16.0.8.2
#
DISCID=b30ffc0d
DTITLE=Συλλογικός δίσκος - Αμάν... Αμήν-Σ. Ξαρχάκος 2
DYEAR=1995
DGENRE=Ρεμπέτικη
TTITLE0=Μαντζόπουλος Κώστας-Μαραγκόπουλος-Τσίγκος - Ξαβεργιώτισσα [της αγάπης,
TTITLE0=Δ.Γκόγκου]
TTITLE1=Λιόσης Σπύρος-Μαντζόπουλος Κ.-Τσίγκος Κ. - Καπριτσιόζα (Αλανιάρα) [της
TTITLE1=αγάπης, Ι. Δραγάτση]
TTITLE2=Τσίγκος Κώστας-Μαντζόπουλος Κ.-Πάνου Π. - Ζούσα μοναχός χωρίς αγάπη [τ
TTITLE2=ης αγάπης, Δ. Γκόγκου]
TTITLE3=Πάνου Πόλυ - Το δίχτυ [της αγάπης, Σταύρου Ξαρχάκου-Νίκου Γκάτσου]
TTITLE4=Λεονάρδου Σωτηρία - Καίγομαι-καίγομαι [της αγάπης, Σ. Ξαρχάκου-Ν. Γκάτ
TTITLE4=σου]
TTITLE5=Πάνου Πόλυ-Τσίγκος Κ.-Μαντζόπουλος Κ. - Τα μάνταλα [της φυλακής, Βασίλ
TTITLE5=η Τσιτσάνη]
TTITLE6=Πάνου Πόλυ - Της γερακίνας γιος [της φυλακής, Β. Τσιτσάνη-Κ. Βίρβου]
TTITLE7=Μαντζόπουλος Κώστας - Ο Σακαφλιάς [της φυλακής, ανωνύμου, διασκ. Σ. Ξα
TTITLE7=ρχάκου]
TTITLE8=Μαραγκόπουλος Νίκος - Ιμιτλερίμ (Ελπίζω) [της προσφυγιάς, παρ., διασκ.
TTITLE8=Σ. Ξαρχάκου]
TTITLE9=Μαραγκόπουλος Νίκος - Τα γερόντια [επίλογος, Σταύρου Ξαρχάκου-Νίκου Γκ
TTITLE9=άτσου]
TTITLE10=Τσίγκος Κώστας - Στου Θωμά [επίλογος, Σταύρου Ξαρχάκου-Κώστα Φέρρη]
TTITLE11=Πάνου Πόλυ - Κόκκινα φανάρια [επίλογος, Σ. Ξαρχάκου-Αλέκου Γαλανού]
TTITLE12=Μαντζόπουλος Κώστας - Τα παιδιά της Άμυνας [επίλογος, παρ., διασκ. Σ.
TTITLE12=Ξαρχάκου]
EXTD=
EXTT0=
EXTT1=
EXTT2=
EXTT3=
EXTT4=
EXTT5=
EXTT6=
EXTT7=
EXTT8=
EXTT9=
EXTT10=
EXTT11=
EXTT12=
PLAYORDER=
